<?xml version="1.0" encoding="UTF-8"?>
<svg version="1.1" xmlns="http://www.w3.org/2000/svg" width="94" height="94">
<path d="M0 0 C5.83537271 0.06915941 11.67004814 0.15726276 17.50488281 0.26245117 C19.4872256 0.2955764 21.46965989 0.32364644 23.45214844 0.34643555 C26.31224329 0.38021054 29.17150892 0.43253688 32.03125 0.48828125 C32.90865845 0.49467117 33.78606689 0.5010611 34.69006348 0.50764465 C41.59802024 0.67037524 47.35816855 1.71841829 52.75 6.375 C53.4925 7.24125 54.235 8.1075 55 9 C55.7425 9.845625 56.485 10.69125 57.25 11.5625 C60.59899097 16.22716599 60.11973935 21.04268279 60.01953125 26.60546875 C60.00540695 27.44410965 59.99128265 28.28275055 59.97673035 29.14680481 C59.94365516 30.92125587 59.90730643 32.69564851 59.86791992 34.4699707 C59.81305359 37.1603547 59.78423007 39.85024023 59.75585938 42.54101562 C59.72036974 44.27086732 59.68330956 46.00068765 59.64453125 47.73046875 C59.64016556 48.52454636 59.63579987 49.31862396 59.63130188 50.13676453 C59.44084081 56.50490161 57.906633 62.71223105 53.58869934 67.59635925 C47.62798444 72.83431043 42.17948281 73.31651233 34.60546875 73.3359375 C33.24619011 73.3459227 33.24619011 73.3459227 31.85945129 73.35610962 C29.94562808 73.36621438 28.03176979 73.37092731 26.11791992 73.37060547 C23.20757154 73.3749699 20.29875136 73.41128796 17.38867188 73.44921875 C15.52344265 73.45508932 13.65820627 73.45905711 11.79296875 73.4609375 C10.93124557 73.47530853 10.0695224 73.48967957 9.1816864 73.50448608 C2.72092328 73.45624757 -2.63486189 72.03241238 -7.52766418 67.62338257 C-13.08122364 61.4472262 -13.31413219 54.87686703 -13.4140625 47.0078125 C-13.43342865 46.06187225 -13.4527948 45.11593201 -13.4727478 44.1413269 C-13.53227049 41.13597478 -13.57881946 38.13058379 -13.625 35.125 C-13.66320492 33.08071296 -13.70225811 31.03644158 -13.7421875 28.9921875 C-13.83794954 23.9949197 -13.92208114 18.99757658 -14 14 C-13.34 14 -12.68 14 -12 14 C-10.88771911 12.33298837 -10.88771911 12.33298837 -9.8125 10.25 C-7.19059926 5.82259874 -4.61012617 4.16947114 0 2 C0 1.34 0 0.68 0 0 Z " fill="#30174A" transform="translate(24,10)"/>
<path d="M0 0 C5.83537271 0.06915941 11.67004814 0.15726276 17.50488281 0.26245117 C19.4872256 0.2955764 21.46965989 0.32364644 23.45214844 0.34643555 C26.31224329 0.38021054 29.17150892 0.43253688 32.03125 0.48828125 C32.90865845 0.49467117 33.78606689 0.5010611 34.69006348 0.50764465 C41.62354549 0.67097654 47.30551176 1.78453189 52.8125 6.3125 C55.06201492 9.07618976 56.56294994 11.74772881 58 15 C53.79373966 13.49776416 52.26099979 10.71449966 50 7 C48.9790625 7.2784375 48.9790625 7.2784375 47.9375 7.5625 C44.40425915 8.08872736 41.52744405 7.53808469 38 7 C35.18820356 6.72037383 32.85798712 6.76183441 30 7 C27.94729537 8.84188612 27.94729537 8.84188612 27 11 C27.99 11.66 28.98 12.32 30 13 C29.13117187 13.10957031 28.26234375 13.21914063 27.3671875 13.33203125 C20.52708658 14.27311896 14.88473125 15.08645156 9.25 19.3125 C7.48668345 21.69297734 6.84768439 24.17438536 6 27 C5.6596875 27.77988281 5.319375 28.55976562 4.96875 29.36328125 C3.08427677 34.49239185 2.89167469 40.24292629 4.9453125 45.3515625 C7.94647392 50.39124866 11.39910732 53.8440477 16.8125 56.25 C23.28103125 57.77200735 27.31172336 57.71567597 33.1875 54.625 C38.56332115 51.17917319 40.79723143 46.8663205 43 41 C41.35 41 39.7 41 38 41 C38 38.69 38 36.38 38 34 C39.81242052 33.97312721 41.62495233 33.95366285 43.4375 33.9375 C44.44683594 33.92589844 45.45617187 33.91429687 46.49609375 33.90234375 C49 34 49 34 50 35 C50.89725191 42.88546393 49.24491444 49.42424892 44.375 55.6875 C38.89076124 61.47715642 33.74442695 64.18795573 25.75439453 64.59179688 C18.18892709 64.70322243 11.93282872 64.15729555 6 59 C-0.4849744 52.68757481 -4.06266085 46.48088749 -4.375 37.375 C-4.31923689 30.8347834 -2.42908821 26.47134296 1 21 C1.37253906 20.34 1.74507812 19.68 2.12890625 19 C5.30431342 13.86624067 9.62852998 11.53945315 15 9 C11.43872377 8.9190619 8.42449894 9.06604574 5 10 C3.96875 10.020625 2.9375 10.04125 1.875 10.0625 C-3.89751395 11.45907595 -7.61379648 15.12566732 -12 19 C-12.66 18.67 -13.32 18.34 -14 18 C-13.01393923 11.34408978 -6.81024098 6.12666885 -1.6875 2.25 C-1.130625 1.8375 -0.57375 1.425 0 1 C0 0.67 0 0.34 0 0 Z " fill="#E557E3" transform="translate(24,10)"/>
<path d="M0 0 C0.66 0.66 1.32 1.32 2 2 C3.9931567 2.02375926 3.9931567 2.02375926 6.125 1.625 C7.40375 1.41875 8.6825 1.2125 10 1 C9.3125 2.9375 9.3125 2.9375 8 5 C5.04588797 6.08835706 3.62168913 6.25203613 0.6875 5.0625 C0.130625 4.711875 -0.42625 4.36125 -1 4 C-1 3.34 -1 2.68 -1 2 C-6.445 1.505 -6.445 1.505 -12 1 C-14.96314269 5.01876919 -14.96314269 5.01876919 -16.5 9.6875 C-17 12 -17 12 -18.875 13.8125 C-21 15 -21 15 -24 15 C-22.60034402 17.79931196 -20.38573531 18.51299244 -17.69140625 19.90234375 C-16 21 -16 21 -14 24 C-14 24.99 -14 25.98 -14 27 C-13.01 27 -12.02 27 -11 27 C-10.9071875 26.1646875 -10.9071875 26.1646875 -10.8125 25.3125 C-9.64834483 21.99913528 -7.60541556 20.29524704 -5 18 C-4.01 17.67 -3.02 17.34 -2 17 C-1.34 16.01 -0.68 15.02 0 14 C0.66 14 1.32 14 2 14 C2 15.98 2 17.96 2 20 C3.65 20 5.3 20 7 20 C6.54691566 24.98392772 4.40016515 28.45445961 1 32 C-4.52879089 36.20188108 -9.11392007 37.87442285 -16 37 C-23.01821553 35.59635689 -26.92581751 31.7368894 -31 26 C-33.89502995 21.27754251 -33.4855177 16.37201844 -33 11 C-31.2058295 5.51194907 -27.42005535 1.60258275 -23 -2 C-15.1416557 -5.92917215 -7.15657503 -4.70240182 0 0 Z " fill="#2F153D" transform="translate(60,31)"/>
<path d="M0 0 C5.83537271 0.06915941 11.67004814 0.15726276 17.50488281 0.26245117 C19.4872256 0.2955764 21.46965989 0.32364644 23.45214844 0.34643555 C26.31224329 0.38021054 29.17150892 0.43253688 32.03125 0.48828125 C32.90865845 0.49467117 33.78606689 0.5010611 34.69006348 0.50764465 C41.62354549 0.67097654 47.30551176 1.78453189 52.8125 6.3125 C55.06201492 9.07618976 56.56294994 11.74772881 58 15 C53.79373966 13.49776416 52.26099979 10.71449966 50 7 C48.9790625 7.2784375 48.9790625 7.2784375 47.9375 7.5625 C44.40425915 8.08872736 41.52744405 7.53808469 38 7 C35.18820356 6.72037383 32.85798712 6.76183441 30 7 C27.94729537 8.84188612 27.94729537 8.84188612 27 11 C27.99 11.66 28.98 12.32 30 13 C27.89627599 13.33611568 25.79200343 13.66879946 23.6875 14 C22.51574219 14.185625 21.34398437 14.37125 20.13671875 14.5625 C17 15 17 15 14 15 C14.66 14.34 15.32 13.68 16 13 C11.00088076 13.47610659 8.02167317 15.03162219 4 18 C5.44386582 14.28720216 7.12236392 13.0513557 10.625 11.25 C11.44226563 10.82203125 12.25953125 10.3940625 13.1015625 9.953125 C14.04128906 9.48132813 14.04128906 9.48132813 15 9 C11.43872377 8.9190619 8.42449894 9.06604574 5 10 C3.96875 10.020625 2.9375 10.04125 1.875 10.0625 C-3.89751395 11.45907595 -7.61379648 15.12566732 -12 19 C-12.66 18.67 -13.32 18.34 -14 18 C-13.01393923 11.34408978 -6.81024098 6.12666885 -1.6875 2.25 C-1.130625 1.8375 -0.57375 1.425 0 1 C0 0.67 0 0.34 0 0 Z " fill="#996DC4" transform="translate(24,10)"/>
<path d="M0 0 C1.81242052 -0.02687279 3.62495233 -0.04633715 5.4375 -0.0625 C6.44683594 -0.07410156 7.45617187 -0.08570313 8.49609375 -0.09765625 C11 0 11 0 12 1 C12.89725191 8.88546393 11.24491444 15.42424892 6.375 21.6875 C0.89147306 27.47640496 -4.25649424 30.19136938 -12.24682617 30.59057617 C-19.71389796 30.70465756 -26.13059151 30.15134256 -32 25 C-32.33 24.34 -32.66 23.68 -33 23 C-26.125 24.875 -26.125 24.875 -25 26 C-22.32941149 26.14115161 -19.67567762 26.04247107 -17 26 C-17.33 25.34 -17.66 24.68 -18 24 C-16.88625 23.95875 -15.7725 23.9175 -14.625 23.875 C-8.93637355 23.11719008 -4.330112 20.73592854 0 17 C2.12174229 13.81501324 3.65664899 10.57755584 5 7 C3.35 7 1.7 7 0 7 C0 4.69 0 2.38 0 0 Z " fill="#E2BD18" transform="translate(62,44)"/>
<path d="M0 0 C1.41750563 0.11509661 2.83401169 0.24253658 4.25 0.375 C5.03890625 0.44460937 5.8278125 0.51421875 6.640625 0.5859375 C9.085877 1.01507113 10.84836903 1.78600638 13 3 C13 3.66 13 4.32 13 5 C13.61875 5.28875 14.2375 5.5775 14.875 5.875 C17 7 17 7 19 9 C19 10.32 19 11.64 19 13 C16.3125 13.75 16.3125 13.75 13 14 C10.4375 12.1875 10.4375 12.1875 8 10 C3.52977252 7.51654029 -1.00982846 7.44267844 -6 8 C-10.76261 9.58753667 -14.23816575 11.69414566 -18 15 C-17.67335557 12.0602001 -17.20333458 10.27653503 -15.4375 7.875 C-10.26641831 3.89724485 -4.38044177 2.66462935 2 2 C1.34 1.34 0.68 0.68 0 0 Z " fill="#2D2EE6" transform="translate(49,20)"/>
<path d="M0 0 C1.84551272 1.78816628 3.34658597 3.47366749 4.875 5.5625 C7.1477044 8.16942563 8.73609235 9.00269488 12 10 C11.67 10.99 11.34 11.98 11 13 C10.05125 13.433125 9.1025 13.86625 8.125 14.3125 C4.37011461 16.34013811 3.55569104 18.1107724 2 22 C1.01 22 0.02 22 -1 22 C-1.350625 21.0925 -1.70125 20.185 -2.0625 19.25 C-4.54761219 15.08142471 -6.70195737 14.10847374 -11 12 C-11 11.34 -11 10.68 -11 10 C-10.113125 9.649375 -9.22625 9.29875 -8.3125 8.9375 C-4.130793 6.4915959 -2.59544888 4.04584679 0 0 Z " fill="#DED9DD" transform="translate(47,36)"/>
<path d="M0 0 C1.8141927 0.28094582 3.62635001 0.57506433 5.4375 0.875 C6.95150391 1.11863281 6.95150391 1.11863281 8.49609375 1.3671875 C9.32238281 1.57601562 10.14867188 1.78484375 11 2 C11.33 2.66 11.66 3.32 12 4 C13.63846384 4.88750125 15.31093739 5.71305037 17 6.5 C21.88888889 8.77777778 21.88888889 8.77777778 23 11 C20.36 11 17.72 11 15 11 C14.67 11.99 14.34 12.98 14 14 C11.375 14.8125 11.375 14.8125 8 15 C4.30586281 12.46480781 1.48401824 9.72602736 -1 6 C-1.66 7.32 -2.32 8.64 -3 10 C-3.99 9.67 -4.98 9.34 -6 9 C-5.34 9 -4.68 9 -4 9 C-4.33 8.01 -4.66 7.02 -5 6 C-3.59554165 3.7363436 -1.8032087 1.9791315 0 0 Z " fill="#371A59" transform="translate(48,31)"/>
<path d="M0 0 C0.8125 1.625 0.8125 1.625 1 4 C-2.19562687 8.89330365 -5.34735111 11.27993061 -11 13 C-14.26261155 13.39428808 -17.48279863 13.37454544 -20.765625 13.328125 C-22.13844635 13.32531525 -22.13844635 13.32531525 -23.53900146 13.32244873 C-25.46191077 13.31575842 -27.38480717 13.30190456 -29.30761719 13.28125 C-32.25468559 13.24995024 -35.20121892 13.24025963 -38.1484375 13.234375 C-40.02083988 13.2252097 -41.89323681 13.21483544 -43.765625 13.203125 C-44.64688049 13.19887512 -45.52813599 13.19462524 -46.43609619 13.19024658 C-47.66317291 13.17583527 -47.66317291 13.17583527 -48.91503906 13.16113281 C-49.99256439 13.15089081 -49.99256439 13.15089081 -51.09185791 13.14044189 C-55.84938916 12.79028102 -57.92037029 10.39548916 -61 7 C-61.69966432 5.68368238 -62.37402472 4.35291432 -63 3 C-62.05125 3.78375 -61.1025 4.5675 -60.125 5.375 C-47.75532177 13.07605188 -24.25012386 11.43932888 -10.53515625 8.8359375 C-6.52010155 7.51202116 -3.69915383 5.21452624 -1 2 C-0.67 1.34 -0.34 0.68 0 0 Z " fill="#1B1119" transform="translate(79,70)"/>
<path d="M0 0 C1.00933594 -0.01836914 1.00933594 -0.01836914 2.0390625 -0.03710938 C5.74361843 -0.04804802 8.47990643 0.14722135 11.625 2.1875 C11.625 2.8475 11.625 3.5075 11.625 4.1875 C7.87651927 5.43699358 5.52466865 4.76286095 1.625 4.1875 C-1.18775756 3.90880476 -3.51583547 3.94923629 -6.375 4.1875 C-8.42770463 6.02938612 -8.42770463 6.02938612 -9.375 8.1875 C-8.385 8.8475 -7.395 9.5075 -6.375 10.1875 C-8.47872401 10.52361568 -10.58299657 10.85629946 -12.6875 11.1875 C-13.85925781 11.373125 -15.03101563 11.55875 -16.23828125 11.75 C-19.375 12.1875 -19.375 12.1875 -22.375 12.1875 C-21.715 11.5275 -21.055 10.8675 -20.375 10.1875 C-25.37411924 10.66360659 -28.35332683 12.21912219 -32.375 15.1875 C-30.9041373 11.34829905 -28.97355296 10.04601282 -25.4375 8.0625 C-24.56222656 7.56492187 -23.68695313 7.06734375 -22.78515625 6.5546875 C-21.98980469 6.10351562 -21.19445312 5.65234375 -20.375 5.1875 C-19.385 4.5275 -18.395 3.8675 -17.375 3.1875 C-15.40234375 2.58984375 -15.40234375 2.58984375 -13.3125 2.125 C-3.89809728 0.00369138 -3.89809728 0.00369138 0 0 Z " fill="#6E3CB1" transform="translate(60.375,12.8125)"/>
<path d="M0 0 C-3.21894674 3.35306952 -6.68194532 6.37798293 -10.1953125 9.4140625 C-13.61319435 12.41765564 -14.67368195 14.64209784 -16 19 C-16.66 19 -17.32 19 -18 19 C-18.12375 19.78375 -18.2475 20.5675 -18.375 21.375 C-19 24 -19 24 -21 26 C-21.8069435 18.97660289 -20.85387731 14.18435749 -16.91015625 8.2734375 C-12.4762987 2.99633097 -7.1798016 -1.10458486 0 0 Z " fill="#C394EE" transform="translate(42,22)"/>
<path d="M0 0 C13.86 0.33 27.72 0.66 42 1 C42 1.33 42 1.66 42 2 C40.87972412 2.029729 40.87972412 2.029729 39.73681641 2.06005859 C36.36584395 2.15508211 32.99551071 2.26485259 29.625 2.375 C28.449375 2.4059375 27.27375 2.436875 26.0625 2.46875 C24.94101562 2.50742188 23.81953125 2.54609375 22.6640625 2.5859375 C21.62717285 2.6173584 20.5902832 2.6487793 19.52197266 2.68115234 C16.83190165 2.75954472 16.83190165 2.75954472 15 5 C12.87695312 5.51831055 12.87695312 5.51831055 10.28125 5.88671875 C9.34925781 6.02013672 8.41726562 6.15355469 7.45703125 6.29101562 C5.99330078 6.48727539 5.99330078 6.48727539 4.5 6.6875 C3.52417969 6.82994141 2.54835938 6.97238281 1.54296875 7.11914062 C-5.73764712 8.13117644 -5.73764712 8.13117644 -8 7 C-7.4225 6.66226562 -6.845 6.32453125 -6.25 5.9765625 C-5.5075 5.53054687 -4.765 5.08453125 -4 4.625 C-3.2575 4.18414063 -2.515 3.74328125 -1.75 3.2890625 C-1.1725 2.86367187 -0.595 2.43828125 0 2 C0 1.34 0 0.68 0 0 Z " fill="#AD86D2" transform="translate(24,10)"/>
<path d="M0 0 C0.66 0.66 1.32 1.32 2 2 C3.9931567 2.02375926 3.9931567 2.02375926 6.125 1.625 C7.40375 1.41875 8.6825 1.2125 10 1 C9.3125 2.9375 9.3125 2.9375 8 5 C5.04588797 6.08835706 3.62168913 6.25203613 0.6875 5.0625 C0.130625 4.711875 -0.42625 4.36125 -1 4 C-1 3.01 -1 2.02 -1 1 C-6.8039958 -0.68592259 -13.81162406 -1.42448409 -19.421875 1.08203125 C-21.48610543 2.38994045 -21.48610543 2.38994045 -23.28125 3.80859375 C-25.17433733 5.12084747 -26.7529694 5.57129022 -29 6 C-27.43795274 1.78247239 -24.54865748 -0.37399346 -21 -3 C-13.40396367 -5.46025468 -6.60841007 -4.34221669 0 0 Z " fill="#160B35" transform="translate(60,31)"/>
<path d="M0 0 C0.99 0.33 1.98 0.66 3 1 C1.75312408 1.96239452 0.50235031 2.91974009 -0.75 3.875 C-1.44609375 4.40867187 -2.1421875 4.94234375 -2.859375 5.4921875 C-9.69259088 10.30536511 -17.88942523 10.04192248 -26 9 C-30.0913126 7.60511649 -33.99968656 6.00062689 -36 2 C-29.125 3.875 -29.125 3.875 -28 5 C-24.62476042 5.14899552 -21.24928918 4.94593369 -17.875 4.8125 C-16.9365625 4.79380859 -15.998125 4.77511719 -15.03125 4.75585938 C-8.78391076 4.50649079 -5.26172317 3.30053544 0 0 Z " fill="#BF2020" transform="translate(65,65)"/>
<path d="M0 0 C2.359375 1.53125 2.359375 1.53125 4 3 C3.28714844 2.90460937 2.57429688 2.80921875 1.83984375 2.7109375 C-6.27514211 1.75452674 -6.27514211 1.75452674 -14 4 C-21.13220851 9.05710376 -21.13220851 9.05710376 -25.31640625 16.06640625 C-25.39761719 16.89011719 -25.47882812 17.71382812 -25.5625 18.5625 C-25.64628906 19.38878906 -25.73007812 20.21507813 -25.81640625 21.06640625 C-25.87699219 21.70449219 -25.93757813 22.34257813 -26 23 C-26.66 23 -27.32 23 -28 23 C-28.59068344 10.70503348 -28.59068344 10.70503348 -25 6 C-22.8125 5.4375 -22.8125 5.4375 -20 5 C-18.79508982 4.17057345 -17.60948099 3.3128385 -16.4375 2.4375 C-11.3615726 -0.89810943 -5.89149066 -1.00996983 0 0 Z " fill="#2C134B" transform="translate(55,30)"/>
<path d="M0 0 C3.33285926 -0.14685185 6.66487345 -0.23457648 10 -0.3125 C10.93457031 -0.35439453 11.86914062 -0.39628906 12.83203125 -0.43945312 C19.47725009 -0.55562828 23.95089831 0.53684148 29 5 C30.93687634 7.61752392 31.75718779 9.94475332 33 13 C29.87199258 11.64366483 29.04695216 11.07355838 27.125 8.0625 C24.6295001 4.46604426 23.03647973 3.60327466 19 2 C15.25069354 1.56554478 15.25069354 1.56554478 11.375 1.6875 C10.08335938 1.69136719 8.79171875 1.69523438 7.4609375 1.69921875 C4.15690301 1.98636396 2.81718526 2.48432138 0 4 C-2.48223418 4.57965022 -4.93438698 5.10004803 -7.4375 5.5625 C-8.42073242 5.75102539 -8.42073242 5.75102539 -9.42382812 5.94335938 C-11.28184051 6.29930758 -13.14089708 6.64979224 -15 7 C-16.66717031 7.33080515 -18.33407819 7.6629638 -20 8 C-20 7.01 -20 6.02 -20 5 C-13.4 4.01 -6.8 3.02 0 2 C0 1.34 0 0.68 0 0 Z " fill="#9066C1" transform="translate(49,12)"/>
<path d="M0 0 C0.6875 1.625 0.6875 1.625 1 4 C0.525625 4.825 0.05125 5.65 -0.4375 6.5 C-2.43568776 10.97594058 -2.14467573 14.55591581 -1.91015625 19.390625 C-2 22 -2 22 -4 24 C-4.61875 23.505 -5.2375 23.01 -5.875 22.5 C-7.83880904 20.80777227 -7.83880904 20.80777227 -10 21 C-10 17.04 -10 13.08 -10 9 C-9.67 9 -9.34 9 -9 9 C-8.67 10.65 -8.34 12.3 -8 14 C-7.34 12.35 -6.68 10.7 -6 9 C-5.34 9 -4.68 9 -4 9 C-3.566875 7.329375 -3.566875 7.329375 -3.125 5.625 C-2 2 -2 2 0 0 Z " fill="#CF5BE1" transform="translate(30,32)"/>
<path d="M0 0 C2.82580439 1.58792958 4.49395201 3.47057203 6.17578125 6.22265625 C3.48828125 6.97265625 3.48828125 6.97265625 0.17578125 7.22265625 C-2.38671875 5.41015625 -2.38671875 5.41015625 -4.82421875 3.22265625 C-8.55683406 1.3818272 -11.49765005 0.99791965 -15.63671875 1.09765625 C-16.61253906 1.11570312 -17.58835938 1.13375 -18.59375 1.15234375 C-19.32980469 1.17554688 -20.06585938 1.19875 -20.82421875 1.22265625 C-20.49421875 0.23265625 -20.16421875 -0.75734375 -19.82421875 -1.77734375 C-12.83363559 -4.10753814 -6.6509986 -2.88589208 0 0 Z " fill="#110FC2" transform="translate(61.82421875,26.77734375)"/>
<path d="M0 0 C0.66 0.33 1.32 0.66 2 1 C1.01 13.87 0.02 26.74 -1 40 C-1.33 40 -1.66 40 -2 40 C-2.04935509 34.62485095 -2.08569802 29.24983315 -2.10986328 23.87451172 C-2.11993484 22.04506127 -2.13359276 20.21562697 -2.15087891 18.38623047 C-2.17507677 15.76005066 -2.18647132 13.13408325 -2.1953125 10.5078125 C-2.20563507 9.68693146 -2.21595764 8.86605042 -2.22659302 8.02029419 C-2.22699184 6.01210858 -2.1224954 4.00444618 -2 2 C-1.34 1.34 -0.68 0.68 0 0 Z " fill="#3D254B" transform="translate(13,27)"/>
<path d="M0 0 C2 2 2 2 2 6 C2.598125 6.2475 3.19625 6.495 3.8125 6.75 C6.31626919 8.18072525 7.48072388 9.5691582 9 12 C9 12.66 9 13.32 9 14 C9.969375 14.309375 10.93875 14.61875 11.9375 14.9375 C15 16 15 16 16 17 C18.32817964 17.36760731 20.6618385 17.70241581 23 18 C23 18.33 23 18.66 23 19 C15.94160927 19.6535547 10.79254653 18.17333219 5 14 C2.44881601 11.24989328 0.33313881 8.52286455 -1 5 C-0.64453125 2.21875 -0.64453125 2.21875 0 0 Z " fill="#D13ACF" transform="translate(22,52)"/>
<path d="M0 0 C0.33 0.99 0.66 1.98 1 3 C-3.14779456 7.5366503 -7.95057328 12.30255919 -14.22265625 13.3828125 C-16.375 13.4375 -16.375 13.4375 -20 13 C-20.66 12.34 -21.32 11.68 -22 11 C-20.88625 10.95875 -19.7725 10.9175 -18.625 10.875 C-11.18808762 9.96192713 -5.03088262 5.31935066 0 0 Z " fill="#EC7D5D" transform="translate(66,57)"/>
<path d="M0 0 C0.66 0.33 1.32 0.66 2 1 C0.50856069 6.16267453 -0.74778668 8.63137622 -5.33984375 11.421875 C-6.19707031 11.86015625 -7.05429687 12.2984375 -7.9375 12.75 C-8.79214844 13.19859375 -9.64679687 13.6471875 -10.52734375 14.109375 C-13.23258313 15.08377402 -14.35672682 15.00579304 -17 14 C-16.03900391 13.48953125 -16.03900391 13.48953125 -15.05859375 12.96875 C-8.79231195 9.4573909 -4.36675411 5.69702358 0 0 Z " fill="#DF6517" transform="translate(71,55)"/>
<path d="M0 0 C-1.72828062 2.09212918 -2.58408524 2.93255436 -5.3125 3.375 C-8.55572923 4.12923936 -10.25181165 5.4604424 -12.8125 7.5625 C-13.60269531 8.20316406 -14.39289062 8.84382813 -15.20703125 9.50390625 C-15.79871094 9.99761719 -16.39039063 10.49132813 -17 11 C-17.66 10.67 -18.32 10.34 -19 10 C-18.67841271 6.99851864 -18.01846979 6.01794208 -15.8125 3.875 C-10.58154855 0.38769904 -6.23240628 -0.24929625 0 0 Z " fill="#784BA9" transform="translate(29,18)"/>
<path d="M0 0 C-2.03075951 2.25639945 -3.49675603 3.81459433 -6.375 4.875 C-9.60079285 6.25748265 -11.33680093 8.18676198 -13.66796875 10.7578125 C-15 12 -15 12 -17 12 C-16.5248459 7.72361306 -14.12116265 5.76648508 -11 3 C-7.20408217 0.17739444 -4.7083158 -0.32848715 0 0 Z " fill="#D1BCF6" transform="translate(42,22)"/>
<path d="M0 0 C13.53 0 27.06 0 41 0 C41 0.33 41 0.66 41 1 C27.47 1 13.94 1 0 1 C0 0.67 0 0.34 0 0 Z " fill="#0D070C" transform="translate(27,84)"/>
<path d="M0 0 C0.66 0.33 1.32 0.66 2 1 C2 1.33 2 1.66 2 2 C-0.10372401 2.33611568 -2.20799657 2.66879946 -4.3125 3 C-6.07013672 3.2784375 -6.07013672 3.2784375 -7.86328125 3.5625 C-11 4 -11 4 -14 4 C-13.34 3.34 -12.68 2.68 -12 2 C-12.66 1.34 -13.32 0.68 -14 0 C-9.20863728 -1.59712091 -4.74150731 -1.58050244 0 0 Z " fill="#555AF0" transform="translate(52,21)"/>
<path d="M0 0 C0.33 0 0.66 0 1 0 C1 12.54 1 25.08 1 38 C0.67 38 0.34 38 0 38 C0 25.46 0 12.92 0 0 Z " fill="#301B43" transform="translate(9,28)"/>
<path d="M0 0 C0.33 0 0.66 0 1 0 C1 12.54 1 25.08 1 38 C0.67 38 0.34 38 0 38 C0 25.46 0 12.92 0 0 Z " fill="#231333" transform="translate(84,28)"/>
<path d="M0 0 C0 0.33 0 0.66 0 1 C-6.66666667 2.33333333 -13.33333333 3.66666667 -20 5 C-20 4.01 -20 3.02 -20 2 C-13.25846717 0.74158054 -6.86515862 -0.26404456 0 0 Z " fill="#804EB6" transform="translate(49,15)"/>
<path d="M0 0 C11.88 0 23.76 0 36 0 C36 0.33 36 0.66 36 1 C24.12 1 12.24 1 0 1 C0 0.67 0 0.34 0 0 Z " fill="#A476D0" transform="translate(29,9)"/>
<path d="M0 0 C0.99 0.33 1.98 0.66 3 1 C-3.89715536 6.88183807 -3.89715536 6.88183807 -8.5 7.375 C-9.325 7.25125 -10.15 7.1275 -11 7 C-11 6.34 -11 5.68 -11 5 C-10.45730469 4.80664062 -9.91460937 4.61328125 -9.35546875 4.4140625 C-8.64003906 4.15367188 -7.92460938 3.89328125 -7.1875 3.625 C-6.47980469 3.36976562 -5.77210937 3.11453125 -5.04296875 2.8515625 C-2.75226641 1.9734231 -2.75226641 1.9734231 0 0 Z " fill="#B92B07" transform="translate(65,65)"/>
<path d="M0 0 C2.97 0.99 5.94 1.98 9 3 C9 3.66 9 4.32 9 5 C9.66 5.33 10.32 5.66 11 6 C3.73846154 6.49230769 3.73846154 6.49230769 0 4 C-0.66 3.34 -1.32 2.68 -2 2 C-1.34 2 -0.68 2 0 2 C0 1.34 0 0.68 0 0 Z " fill="#EC5CB0" transform="translate(35,64)"/>
<path d="M0 0 C3.63 0 7.26 0 11 0 C11.33 0.99 11.66 1.98 12 3 C8.04 3 4.08 3 0 3 C0 2.01 0 1.02 0 0 Z " fill="#E9DC2C" transform="translate(62,44)"/>
<path d="M0 0 C-2.22723982 2.33965571 -4.58956647 4.27099166 -7.1875 6.1875 C-7.90292969 6.71730469 -8.61835937 7.24710938 -9.35546875 7.79296875 C-9.89816406 8.19128906 -10.44085937 8.58960938 -11 9 C-10.66009204 5.94082833 -10.14301602 4.19598492 -8.3125 1.6875 C-5.37575119 -0.45553291 -3.55482252 -0.32316568 0 0 Z " fill="#5A38C4" transform="translate(42,26)"/>
<path d="M0 0 C0.6875 1.625 0.6875 1.625 1 4 C0.01789629 6.0088485 -0.98440599 8.00787329 -2 10 C-2.7136724 13.73771834 -2.7136724 13.73771834 -3 17 C-4.68252622 14.42672461 -5.0150238 13.17652967 -4.75 10.0625 C-3.766625 6.04705207 -2.95546782 2.95546782 0 0 Z " fill="#A651D8" transform="translate(30,32)"/>
<path d="M0 0 C3.20652053 0.63696119 5.53250315 1.80138736 8.3125 3.5 C12.32894189 5.80745917 15.40018982 6.70639509 20 7 C20 7.33 20 7.66 20 8 C12.93874611 8.6538198 7.92822704 6.91174833 2 3 C1.34 2.01 0.68 1.02 0 0 Z " fill="#CF2E93" transform="translate(25,63)"/>
<path d="M0 0 C1.125 3.75 1.125 3.75 0 6 C-0.66 6 -1.32 6 -2 6 C-2.12375 6.78375 -2.2475 7.5675 -2.375 8.375 C-3 11 -3 11 -5 13 C-5 9.7 -5 6.4 -5 3 C-4.67 3.66 -4.34 4.32 -4 5 C-2.29159719 3.36587557 -1.06546953 2.13093906 0 0 Z " fill="#CF7DEB" transform="translate(26,35)"/>
<path d="M0 0 C-2.94723051 1.96482034 -5.11977826 2.7561217 -8.5 3.6875 C-9.4590625 3.95949219 -10.418125 4.23148438 -11.40625 4.51171875 C-14 5 -14 5 -17 4 C-12.25 1 -12.25 1 -10 1 C-6.78548731 -0.60725635 -3.56387464 -0.05748185 0 0 Z " fill="#C0A5DA" transform="translate(33,13)"/>
<path d="M0 0 C0.66 0 1.32 0 2 0 C2.23074219 0.59167969 2.46148437 1.18335937 2.69921875 1.79296875 C4.81223931 6.91265887 6.79588945 10.37979369 11 14 C6.11577326 12.60450665 3.86058303 10.13195327 1 6 C0.1875 2.625 0.1875 2.625 0 0 Z " fill="#33232B" transform="translate(12,67)"/>
<path d="M0 0 C0.66 0.33 1.32 0.66 2 1 C1.67 4.3 1.34 7.6 1 11 C0.01 10.67 -0.98 10.34 -2 10 C-2.1953125 3.9453125 -2.1953125 3.9453125 -2 2 C-1.34 1.34 -0.68 0.68 0 0 Z " fill="#4B2578" transform="translate(13,27)"/>
<path d="M0 0 C0.8125 1.625 0.8125 1.625 1 4 C-1.3125 7.25 -1.3125 7.25 -4 10 C-4.66 10 -5.32 10 -6 10 C-6.33 9.01 -6.66 8.02 -7 7 C-5.47005208 5.76302083 -3.94010417 4.52604167 -2.41015625 3.2890625 C-0.86733563 2.0333609 -0.86733563 2.0333609 0 0 Z " fill="#251724" transform="translate(79,70)"/>
<path d="M0 0 C0.33 0.99 0.66 1.98 1 3 C-3.75 7.875 -3.75 7.875 -6 9 C-6.66 8.34 -7.32 7.68 -8 7 C-5.42215154 4.35247996 -3.08351902 2.05567935 0 0 Z " fill="#E7983C" transform="translate(66,57)"/>
<path d="M0 0 C-1.81817001 2.31459868 -2.75615543 2.95377187 -5.69921875 3.51171875 C-6.68535156 3.56972656 -7.67148437 3.62773437 -8.6875 3.6875 C-9.68136719 3.75324219 -10.67523437 3.81898437 -11.69921875 3.88671875 C-12.45847656 3.92410156 -13.21773437 3.96148438 -14 4 C-13 2 -13 2 -10.375 0.875 C-6.78189212 -0.05654649 -3.69584376 -0.14783375 0 0 Z " fill="#8351B5" transform="translate(29,18)"/>
<path d="M0 0 C0.66 0.33 1.32 0.66 2 1 C2 1.66 2 2.32 2 3 C-1.29696105 4.09898702 -2.40494903 3.87124444 -5.6875 3.0625 C-6.89986328 2.77052734 -6.89986328 2.77052734 -8.13671875 2.47265625 C-9.05904297 2.23869141 -9.05904297 2.23869141 -10 2 C-6.33134759 -0.44576827 -4.32799657 -0.23607254 0 0 Z " fill="#5C2E98" transform="translate(70,14)"/>
<path d="M0 0 C3.63 0 7.26 0 11 0 C11 0.66 11 1.32 11 2 C7.78548731 3.60725635 4.56387464 3.05748185 1 3 C0.67 2.01 0.34 1.02 0 0 Z " fill="#A06ECE" transform="translate(38,12)"/>
<path d="M0 0 C9.59453303 0.59453303 9.59453303 0.59453303 13 4 C7.73946963 4.31563182 4.55426184 3.66590937 0 1 C0 0.67 0 0.34 0 0 Z " fill="#392BDA" transform="translate(49,20)"/>
<path d="M0 0 C1.50433594 0.01353516 1.50433594 0.01353516 3.0390625 0.02734375 C3.80992188 0.03894531 4.58078125 0.05054688 5.375 0.0625 C5.375 0.3925 5.375 0.7225 5.375 1.0625 C3.77243892 1.56762244 2.16788208 2.06641627 0.5625 2.5625 C-0.77748047 2.98015625 -0.77748047 2.98015625 -2.14453125 3.40625 C-4.625 4.0625 -4.625 4.0625 -7.625 4.0625 C-7.625 3.0725 -7.625 2.0825 -7.625 1.0625 C-4.98041621 -0.25979189 -2.94738699 -0.03427194 0 0 Z " fill="#6F3BAC" transform="translate(62.625,12.9375)"/>
<path d="M0 0 C0.66 0.33 1.32 0.66 2 1 C0.90931332 4.77545388 0.0916909 7.47043472 -3 10 C-3.99 9.67 -4.98 9.34 -6 9 C-5.566875 8.62875 -5.13375 8.2575 -4.6875 7.875 C-2.53847015 5.48718905 -1.35242016 2.8980432 0 0 Z " fill="#C55B08" transform="translate(71,55)"/>
<path d="M0 0 C2.31 0 4.62 0 7 0 C6.67 1.65 6.34 3.3 6 5 C5.67 4.34 5.34 3.68 5 3 C3.35 3 1.7 3 0 3 C0 2.01 0 1.02 0 0 Z " fill="#C58A04" transform="translate(62,48)"/>
<path d="M0 0 C1.98 0.99 3.96 1.98 6 3 C6 3.99 6 4.98 6 6 C4.68 6 3.36 6 2 6 C0 3 0 3 0 0 Z " fill="#E965D6" transform="translate(29,60)"/>
<path d="M0 0 C4.37702633 1.22556737 8.69677317 2.53060547 13 4 C13 4.33 13 4.66 13 5 C7.30702655 5.45543788 4.45738181 4.58764877 0 1 C0 0.67 0 0.34 0 0 Z " fill="#BA195D" transform="translate(29,67)"/>
<path d="M0 0 C3.08089673 2.77280706 4.68775452 5.06326356 6 9 C3.5067466 8.00269864 2.22532561 7.34925469 0.75 5.0625 C0 3 0 3 0 0 Z " fill="#69538F" transform="translate(76,16)"/>
<path d="M0 0 C-1.49097658 3.7952131 -3.75700849 5.61042731 -7 8 C-4.18918919 0 -4.18918919 0 0 0 Z " fill="#DB9610" transform="translate(74,52)"/>
<path d="M0 0 C2.64 0 5.28 0 8 0 C5.59563974 3.60654039 4.05320393 3.85452932 0 5 C0.66 4.01 1.32 3.02 2 2 C1.34 1.34 0.68 0.68 0 0 Z " fill="#8E87F3" transform="translate(38,21)"/>
<path d="M0 0 C1.98 0 3.96 0 6 0 C5.625 2.4375 5.625 2.4375 5 5 C4.01 5.495 4.01 5.495 3 6 C2.814375 5.071875 2.814375 5.071875 2.625 4.125 C2.12802644 1.80879168 2.12802644 1.80879168 0 0 Z " fill="#220E1A" transform="translate(61,51)"/>
<path d="M0 0 C4 1 4 1 4 1 Z " fill="#8563B7" transform="translate(66,10)"/>
<path d="M0 0 C3 1 3 1 3 1 Z " fill="#181014" transform="translate(68,83)"/>
<path d="M0 0 C3 1 3 1 3 1 Z " fill="#191215" transform="translate(23,83)"/>
<path d="" fill="#28132A" transform="translate(0,0)"/>
<path d="" fill="#271529" transform="translate(0,0)"/>
<path d="M0 0 C2 1 2 1 2 1 Z " fill="#1C1318" transform="translate(71,82)"/>
<path d="M0 0 C2 1 2 1 2 1 Z " fill="#1D1317" transform="translate(21,82)"/>
<path d="M0 0 C2 1 2 1 2 1 Z " fill="#1E151A" transform="translate(73,81)"/>
<path d="M0 0 C2 1 2 1 2 1 Z " fill="#1D171A" transform="translate(19,81)"/>
<path d="" fill="#1D1216" transform="translate(0,0)"/>
<path d="" fill="#191315" transform="translate(0,0)"/>
<path d="" fill="#1F0C23" transform="translate(0,0)"/>
<path d="" fill="#210E22" transform="translate(0,0)"/>
<path d="" fill="#645495" transform="translate(0,0)"/>
<path d="" fill="#966DB7" transform="translate(0,0)"/>
<path d="" fill="#865DAF" transform="translate(0,0)"/>
<path d="" fill="#9F5BC9" transform="translate(0,0)"/>
<path d="" fill="#9C90D2" transform="translate(0,0)"/>
<path d="" fill="#C26CE6" transform="translate(0,0)"/>
<path d="M0 0 C2 1 2 1 2 1 Z " fill="#8F83A1" transform="translate(75,14)"/>
<path d="M0 0 C2 1 2 1 2 1 Z " fill="#955ECF" transform="translate(17,14)"/>
<path d="M0 0 C2 1 2 1 2 1 Z " fill="#7F66C4" transform="translate(72,12)"/>
<path d="M0 0 C2 1 2 1 2 1 Z " fill="#A889DF" transform="translate(20,12)"/>
<path d="M0 0 C2 1 2 1 2 1 Z " fill="#A383C2" transform="translate(70,11)"/>
<path d="M0 0 C2 1 2 1 2 1 Z " fill="#B28BE7" transform="translate(22,11)"/>
<path d="" fill="#301C27" transform="translate(0,0)"/>
<path d="" fill="#35212B" transform="translate(0,0)"/>
<path d="" fill="#2E1928" transform="translate(0,0)"/>
<path d="" fill="#321C1A" transform="translate(0,0)"/>
<path d="" fill="#23191E" transform="translate(0,0)"/>
<path d="" fill="#251B20" transform="translate(0,0)"/>
<path d="" fill="#241B22" transform="translate(0,0)"/>
<path d="" fill="#271D22" transform="translate(0,0)"/>
<path d="" fill="#371E26" transform="translate(0,0)"/>
<path d="" fill="#412025" transform="translate(0,0)"/>
<path d="" fill="#341133" transform="translate(0,0)"/>
<path d="" fill="#341319" transform="translate(0,0)"/>
<path d="" fill="#8376A9" transform="translate(0,0)"/>
<path d="" fill="#A568CD" transform="translate(0,0)"/>
<path d="" fill="#9184A7" transform="translate(0,0)"/>
<path d="" fill="#AB8EDA" transform="translate(0,0)"/>
<path d="" fill="#8576B0" transform="translate(0,0)"/>
<path d="" fill="#B692E1" transform="translate(0,0)"/>
<path d="" fill="#A68EC6" transform="translate(0,0)"/>
<path d="" fill="#9A67E2" transform="translate(0,0)"/>
</svg>
